<svg width="95" height="36" viewBox="0 0 95 36" fill="none" xmlns="http://www.w3.org/2000/svg">
<g filter="url(#filter0_d_101_36)">
<circle cx="17.8047" cy="18" r="17" fill="white"/>
<path d="M13.8011 23.8016C15.9211 25.3216 15.8511 28.0682 15.5511 29.2516C13.9912 26.5316 11.6344 24.9849 10.651 24.5516C13.051 26.4316 14.4844 29.0016 14.901 30.0516C10.661 30.1316 9.00102 27.1516 8.50102 25.9516C8.15157 25.1516 7.98447 22.5516 8.00113 21.3516C9.05113 21.5349 11.6811 22.2816 13.8011 23.8016Z" fill="#A5CB3A"/>
<path d="M15.4306 7.80078C15.2897 8.00913 15.2706 8.20197 15.2376 8.38878C14.8702 10.4581 14.6636 12.5347 14.7105 14.621C14.7221 15.1368 14.7607 15.652 15.0782 16.1354C15.3294 16.518 15.678 16.8498 16.0724 17.1627C16.3243 17.3629 16.5691 17.5676 16.6966 17.8261C16.767 17.9666 16.8039 18.1142 16.8057 18.263C16.8147 19.5636 16.7633 20.8641 16.6651 22.162C16.6044 22.9617 16.5233 23.7604 16.4218 24.5578C16.3168 25.3855 16.1804 26.211 16.0649 27.038C15.9112 28.1444 15.723 29.2479 15.756 30.3629C15.7736 30.9672 15.861 31.5675 16.0559 32.1571C16.2257 32.6671 16.7465 33.0178 17.4561 33.0888C18.0754 33.1508 18.5474 32.97 18.8889 32.6116C19.1277 32.361 19.1914 32.0686 19.2672 31.7814C19.5423 30.7402 19.5307 29.6945 19.3924 28.6436C19.2462 27.5154 19.031 26.3928 18.8675 25.2664C18.694 24.0826 18.5553 22.8969 18.4762 21.7075C18.4068 20.6621 18.3873 19.6159 18.3588 18.5697C18.3435 17.9969 18.6032 17.5187 19.124 17.0934C19.3837 16.8808 19.6435 16.6683 19.8737 16.4389C20.2486 16.0669 20.4304 15.6507 20.466 15.2006C20.5504 14.141 20.4773 13.0825 20.4075 12.0239C20.3614 11.3245 20.2951 10.6259 20.2032 9.92891C20.1189 9.29836 20.0492 8.66543 19.8351 8.04722C19.8085 7.97024 19.8002 7.84177 19.6852 7.84597C19.5701 7.85017 19.6102 7.97734 19.6001 8.04985C19.5719 8.2984 19.5517 8.54904 19.5476 8.79706C19.53 9.93548 19.5251 11.0739 19.4591 12.2126C19.4359 12.6185 19.416 13.0271 19.2814 13.4246C19.2529 13.5097 19.2529 13.6413 19.1011 13.6418C18.9613 13.6418 18.9598 13.5126 18.9324 13.4317C18.7854 12.9953 18.7491 12.5489 18.7142 12.1038C18.6276 10.994 18.5598 9.8832 18.4769 8.77289C18.4585 8.52881 18.4098 8.28552 18.3731 8.04223C18.3653 8.00329 18.3538 7.96475 18.3386 7.92689C18.3258 7.89011 18.3228 7.83546 18.2542 7.8394C18.1856 7.84334 18.1905 7.89773 18.1841 7.93504C18.1598 8.07376 18.1283 8.21248 18.1193 8.35199C18.0818 8.95996 18.0818 9.56871 18.075 10.1772C18.0683 11.0705 18.0589 11.9638 17.9626 12.855C17.9401 13.0591 17.9093 13.264 17.8239 13.4619C17.8123 13.4913 17.7984 13.5202 17.7823 13.5486C17.753 13.5969 17.7245 13.6516 17.6323 13.6497C17.5491 13.6482 17.524 13.5972 17.4966 13.553C17.3954 13.3907 17.3583 13.217 17.3287 13.0439C17.1656 12.0996 17.1457 11.1496 17.1037 10.2006C17.0734 9.53114 17.0561 8.86064 16.9849 8.19304C16.974 8.09346 16.9391 7.99494 16.9163 7.89589C16.9103 7.86962 16.8964 7.83678 16.86 7.8331C16.8038 7.82705 16.7892 7.86909 16.7828 7.89536C16.7441 8.03182 16.7154 8.16959 16.697 8.30812C16.6167 9.2261 16.6134 10.1459 16.5763 11.0647C16.5466 11.7951 16.535 12.5265 16.3929 13.2522C16.3761 13.3609 16.3392 13.4676 16.2831 13.5696C16.2617 13.6061 16.2422 13.6484 16.1729 13.6468C16.1035 13.6453 16.0814 13.6043 16.0604 13.568C15.9693 13.413 15.936 13.2475 15.9078 13.0833C15.7931 12.4091 15.7534 11.7313 15.7152 11.0534C15.6638 10.1394 15.6402 9.22426 15.5573 8.31127C15.5427 8.15311 15.5423 7.9889 15.4306 7.80078Z" fill="#A5CB3A"/>
<path d="M10.812 19.3921C10.552 19.6521 10.1278 19.6538 9.89258 19.3713C9.42314 18.8073 9.04058 18.1748 8.7588 17.4945C8.39194 16.6089 8.20312 15.6596 8.20313 14.7009C8.20313 13.7423 8.39195 12.793 8.7588 11.9074C9.04058 11.2271 9.42314 10.5946 9.89258 10.0306C10.1278 9.74804 10.552 9.74983 10.812 10.0098C11.072 10.2698 11.0687 10.6893 10.8392 10.9766C10.4903 11.4136 10.2038 11.8983 9.98897 12.4169C9.68903 13.141 9.53465 13.9172 9.53465 14.7009C9.53465 15.4847 9.68903 16.2609 9.98897 16.985C10.2038 17.5036 10.4903 17.9883 10.8392 18.4253C11.0687 18.7126 11.072 19.1321 10.812 19.3921Z" fill="#1A6372"/>
<path d="M24.3755 19.353C24.6355 19.613 25.0597 19.6148 25.2949 19.3322C25.7644 18.7682 26.1469 18.1357 26.4287 17.4555C26.7956 16.5698 26.9844 15.6205 26.9844 14.6619C26.9844 13.7032 26.7956 12.754 26.4287 11.8683C26.1469 11.188 25.7644 10.5555 25.2949 9.99157C25.0597 9.70898 24.6355 9.71077 24.3755 9.97076C24.1155 10.2308 24.1188 10.6502 24.3483 10.9376C24.6972 11.3745 24.9837 11.8592 25.1985 12.3778C25.4985 13.102 25.6529 13.8781 25.6529 14.6619C25.6529 15.4457 25.4985 16.2218 25.1985 16.9459C24.9837 17.4646 24.6972 17.9493 24.3483 18.3862C24.1188 18.6735 24.1155 19.093 24.3755 19.353Z" fill="#1A6372"/>
<path d="M17.5996 2C26.2151 2 33.2 8.98415 33.2002 17.5996C33.2002 25.7633 26.929 32.4613 18.9414 33.1416C19.7516 32.6756 20.2988 31.8035 20.2988 30.8018C20.2988 30.657 20.2827 30.5155 20.2607 30.377C26.1917 29.1482 30.6494 23.8948 30.6494 17.5996C30.6492 10.3927 24.8065 4.55078 17.5996 4.55078C10.393 4.5511 4.55099 10.3929 4.55078 17.5996C4.55078 20.8763 5.76044 23.8693 7.75488 26.1611C8.65829 28.8565 11.2027 30.7987 14.2021 30.7988C14.4375 30.7988 14.6702 30.786 14.8994 30.7627C14.8992 30.7757 14.8984 30.7887 14.8984 30.8018C14.8985 31.803 15.4453 32.6745 16.2549 33.1406C8.26917 32.4584 2 25.762 2 17.5996C2.00021 8.98434 8.98437 2.00032 17.5996 2Z" fill="#1A6071"/>
<path d="M28.6035 6.53906C30.8714 8.79595 32.3897 11.6964 32.9541 14.8457C33.5184 17.9949 33.1008 21.2416 31.7578 24.1455C30.4148 27.0494 28.2114 29.4707 25.4463 31.0801C23.4496 32.2422 21.2293 32.9366 18.9492 33.1348C19.7565 32.668 20.3017 31.7983 20.3018 30.7988C20.3018 30.6524 20.2851 30.5092 20.2627 30.3691C21.6268 30.0847 22.9447 29.5841 24.1631 28.875C26.4761 27.5287 28.3199 25.5043 29.4434 23.0752C30.5668 20.646 30.9164 17.9294 30.4443 15.2949C29.9722 12.6606 28.7007 10.2355 26.8037 8.34766L28.6035 6.53906Z" fill="#A5C938"/>
<path d="M22.6146 11.7682C22.8807 11.5251 23.2975 11.5418 23.5039 11.8372C24.0807 12.6631 24.3976 13.6488 24.4045 14.6663C24.4114 15.6838 24.1078 16.6737 23.5422 17.5073C23.3399 17.8055 22.9233 17.8278 22.654 17.5884C22.3846 17.349 22.3662 16.9388 22.5546 16.6315C22.9131 16.0468 23.1042 15.3696 23.0995 14.6751C23.0948 13.9806 22.8946 13.3062 22.5282 12.7263C22.3357 12.4217 22.3485 12.0112 22.6146 11.7682Z" fill="#1A6372"/>
<path d="M12.5924 11.7408C12.3263 11.4978 11.9095 11.5144 11.7032 11.8099C11.1264 12.6358 10.8094 13.6215 10.8026 14.639C10.7957 15.6565 11.0992 16.6464 11.6648 17.48C11.8671 17.7782 12.2837 17.8005 12.553 17.5611C12.8224 17.3216 12.8408 16.9114 12.6524 16.6042C12.2939 16.0194 12.1029 15.3423 12.1076 14.6478C12.1123 13.9533 12.3124 13.2788 12.6789 12.699C12.8714 12.3943 12.8585 11.9839 12.5924 11.7408Z" fill="#1A6372"/>
<mask id="path-10-outside-1_101_36" maskUnits="userSpaceOnUse" x="34.8047" y="11" width="38" height="16" fill="black">
<rect fill="white" x="34.8047" y="11" width="38" height="16"/>
<path d="M36.7519 25C36.3568 25 36.1593 24.7883 36.1593 24.365V13.4943C36.1593 13.071 36.3568 12.8594 36.7519 12.8594H39.7067C42.303 12.8594 44.0583 13.3843 44.9727 14.4341C45.8927 15.4839 46.3527 16.9768 46.3527 18.9128C46.3527 20.8487 45.8927 22.3472 44.9727 23.4083C44.0583 24.4694 42.303 25 39.7067 25H36.7519ZM38.6314 22.9004H39.5458C41.2955 22.9004 42.4271 22.5758 42.9408 21.9267C43.4544 21.272 43.7112 20.2674 43.7112 18.9128C43.7112 17.5582 43.4544 16.5591 42.9408 15.9157C42.4271 15.2666 41.2955 14.9421 39.5458 14.9421H38.6314V22.9004ZM48.7402 25C48.4015 25 48.2322 24.8307 48.2322 24.492V16.6184C48.2322 16.2797 48.4015 16.1104 48.7402 16.1104H50.0948C50.4334 16.1104 50.6027 16.2797 50.6027 16.6184V24.492C50.6027 24.8307 50.4334 25 50.0948 25H48.7402ZM48.7402 14.8066C48.4015 14.8066 48.2322 14.6373 48.2322 14.2986V13.215C48.2322 12.8763 48.4015 12.707 48.7402 12.707H50.0948C50.4334 12.707 50.6027 12.8763 50.6027 13.215V14.2986C50.6027 14.6373 50.4334 14.8066 50.0948 14.8066H48.7402ZM53.4135 25C53.0749 25 52.9056 24.8307 52.9056 24.492V16.6184C52.9056 16.2797 53.0749 16.1104 53.4135 16.1104H54.7512C55.0899 16.1104 55.2592 16.2797 55.2592 16.6184V17.1094H55.293C55.5527 16.6636 55.8829 16.3588 56.2836 16.1951C56.6843 16.0258 57.1669 15.9411 57.7313 15.9411C58.6118 15.9411 59.3399 16.2177 59.9156 16.7708C60.4913 17.3239 60.7792 18.3342 60.7792 19.8017V24.492C60.7792 24.8307 60.6099 25 60.2712 25H58.9166C58.578 25 58.4086 24.8307 58.4086 24.492V20.4113C58.4086 19.1809 58.324 18.4048 58.1546 18.0831C57.9853 17.7613 57.6213 17.6005 57.0625 17.6005C56.4699 17.6005 56.024 17.8319 55.7248 18.2947C55.4257 18.7519 55.2761 19.7058 55.2761 21.1563V24.492C55.2761 24.8307 55.1068 25 54.7681 25H53.4135ZM62.591 20.5552C62.591 19.1272 62.9465 18.0012 63.6577 17.1772C64.3745 16.3531 65.3848 15.9411 66.6886 15.9411C68.2013 15.9411 69.3245 16.3305 70.0582 17.1094C70.792 17.8883 71.1588 19.1413 71.1588 20.8685C71.1588 21.2071 71.0008 21.3764 70.6847 21.3764H65.097C65.1873 22.3134 65.4187 22.9032 65.7912 23.1459C66.1637 23.3886 66.5955 23.5099 67.0866 23.5099C67.555 23.5099 67.9134 23.4479 68.1618 23.3237C68.4101 23.1995 68.6189 23.0302 68.7883 22.8157C68.9802 22.5674 69.2172 22.5279 69.4994 22.6972L70.3461 23.2136C70.6791 23.4168 70.727 23.6595 70.49 23.9417C70.1457 24.3537 69.7421 24.6613 69.2793 24.8645C68.8165 25.0677 68.0856 25.1693 67.0866 25.1693C65.4667 25.1693 64.3124 24.7573 63.6238 23.9333C62.9353 23.1092 62.591 21.9832 62.591 20.5552ZM65.1054 19.6832H68.7883C68.7883 19.0736 68.6359 18.5769 68.3311 18.1931C68.0263 17.8037 67.5409 17.609 66.8749 17.609C66.3443 17.609 65.9239 17.7952 65.6134 18.1677C65.303 18.5346 65.1337 19.0398 65.1054 19.6832Z"/>
</mask>
<path d="M36.7519 25C36.3568 25 36.1593 24.7883 36.1593 24.365V13.4943C36.1593 13.071 36.3568 12.8594 36.7519 12.8594H39.7067C42.303 12.8594 44.0583 13.3843 44.9727 14.4341C45.8927 15.4839 46.3527 16.9768 46.3527 18.9128C46.3527 20.8487 45.8927 22.3472 44.9727 23.4083C44.0583 24.4694 42.303 25 39.7067 25H36.7519ZM38.6314 22.9004H39.5458C41.2955 22.9004 42.4271 22.5758 42.9408 21.9267C43.4544 21.272 43.7112 20.2674 43.7112 18.9128C43.7112 17.5582 43.4544 16.5591 42.9408 15.9157C42.4271 15.2666 41.2955 14.9421 39.5458 14.9421H38.6314V22.9004ZM48.7402 25C48.4015 25 48.2322 24.8307 48.2322 24.492V16.6184C48.2322 16.2797 48.4015 16.1104 48.7402 16.1104H50.0948C50.4334 16.1104 50.6027 16.2797 50.6027 16.6184V24.492C50.6027 24.8307 50.4334 25 50.0948 25H48.7402ZM48.7402 14.8066C48.4015 14.8066 48.2322 14.6373 48.2322 14.2986V13.215C48.2322 12.8763 48.4015 12.707 48.7402 12.707H50.0948C50.4334 12.707 50.6027 12.8763 50.6027 13.215V14.2986C50.6027 14.6373 50.4334 14.8066 50.0948 14.8066H48.7402ZM53.4135 25C53.0749 25 52.9056 24.8307 52.9056 24.492V16.6184C52.9056 16.2797 53.0749 16.1104 53.4135 16.1104H54.7512C55.0899 16.1104 55.2592 16.2797 55.2592 16.6184V17.1094H55.293C55.5527 16.6636 55.8829 16.3588 56.2836 16.1951C56.6843 16.0258 57.1669 15.9411 57.7313 15.9411C58.6118 15.9411 59.3399 16.2177 59.9156 16.7708C60.4913 17.3239 60.7792 18.3342 60.7792 19.8017V24.492C60.7792 24.8307 60.6099 25 60.2712 25H58.9166C58.578 25 58.4086 24.8307 58.4086 24.492V20.4113C58.4086 19.1809 58.324 18.4048 58.1546 18.0831C57.9853 17.7613 57.6213 17.6005 57.0625 17.6005C56.4699 17.6005 56.024 17.8319 55.7248 18.2947C55.4257 18.7519 55.2761 19.7058 55.2761 21.1563V24.492C55.2761 24.8307 55.1068 25 54.7681 25H53.4135ZM62.591 20.5552C62.591 19.1272 62.9465 18.0012 63.6577 17.1772C64.3745 16.3531 65.3848 15.9411 66.6886 15.9411C68.2013 15.9411 69.3245 16.3305 70.0582 17.1094C70.792 17.8883 71.1588 19.1413 71.1588 20.8685C71.1588 21.2071 71.0008 21.3764 70.6847 21.3764H65.097C65.1873 22.3134 65.4187 22.9032 65.7912 23.1459C66.1637 23.3886 66.5955 23.5099 67.0866 23.5099C67.555 23.5099 67.9134 23.4479 68.1618 23.3237C68.4101 23.1995 68.6189 23.0302 68.7883 22.8157C68.9802 22.5674 69.2172 22.5279 69.4994 22.6972L70.3461 23.2136C70.6791 23.4168 70.727 23.6595 70.49 23.9417C70.1457 24.3537 69.7421 24.6613 69.2793 24.8645C68.8165 25.0677 68.0856 25.1693 67.0866 25.1693C65.4667 25.1693 64.3124 24.7573 63.6238 23.9333C62.9353 23.1092 62.591 21.9832 62.591 20.5552ZM65.1054 19.6832H68.7883C68.7883 19.0736 68.6359 18.5769 68.3311 18.1931C68.0263 17.8037 67.5409 17.609 66.8749 17.609C66.3443 17.609 65.9239 17.7952 65.6134 18.1677C65.303 18.5346 65.1337 19.0398 65.1054 19.6832Z" fill="#1C5C6C"/>
<path d="M44.9727 14.4341L44.2186 15.0909L44.2206 15.0932L44.9727 14.4341ZM44.9727 23.4083L44.2171 22.7533L44.2151 22.7556L44.9727 23.4083ZM38.6314 22.9004H37.6314V23.9004H38.6314V22.9004ZM42.9408 21.9267L43.725 22.5473L43.7276 22.544L42.9408 21.9267ZM42.9408 15.9157L42.1566 16.5362L42.1592 16.5396L42.9408 15.9157ZM38.6314 14.9421V13.9421H37.6314V14.9421H38.6314ZM36.7519 25V24C36.7269 24 36.8869 23.9965 37.0385 24.1589C37.1779 24.3083 37.1593 24.439 37.1593 24.365H36.1593H35.1593C35.1593 24.7143 35.2394 25.1625 35.5764 25.5236C35.9255 25.8976 36.3819 26 36.7519 26V25ZM36.1593 24.365H37.1593V13.4943H36.1593H35.1593V24.365H36.1593ZM36.1593 13.4943H37.1593C37.1593 13.4203 37.1779 13.551 37.0385 13.7004C36.8869 13.8628 36.7269 13.8594 36.7519 13.8594V12.8594V11.8594C36.3819 11.8594 35.9255 11.9618 35.5764 12.3358C35.2394 12.6969 35.1593 13.145 35.1593 13.4943H36.1593ZM36.7519 12.8594V13.8594H39.7067V12.8594V11.8594H36.7519V12.8594ZM39.7067 12.8594V13.8594C42.2432 13.8594 43.6054 14.3869 44.2186 15.0909L44.9727 14.4341L45.7268 13.7773C44.5112 12.3817 42.3627 11.8594 39.7067 11.8594V12.8594ZM44.9727 14.4341L44.2206 15.0932C44.9283 15.9007 45.3527 17.1256 45.3527 18.9128H46.3527H47.3527C47.3527 16.828 46.8571 15.0671 45.7247 13.775L44.9727 14.4341ZM46.3527 18.9128H45.3527C45.3527 20.6991 44.9286 21.9327 44.2171 22.7533L44.9727 23.4083L45.7282 24.0634C46.8567 22.7618 47.3527 20.9983 47.3527 18.9128H46.3527ZM44.9727 23.4083L44.2151 22.7556C43.6014 23.4678 42.2409 24 39.7067 24V25V26C42.3651 26 44.5152 25.4711 45.7302 24.0611L44.9727 23.4083ZM39.7067 25V24H36.7519V25V26H39.7067V25ZM38.6314 22.9004V23.9004H39.5458V22.9004V21.9004H38.6314V22.9004ZM39.5458 22.9004V23.9004C40.4733 23.9004 41.2949 23.8154 41.9825 23.6182C42.6674 23.4218 43.294 23.0919 43.725 22.5473L42.9408 21.9267L42.1566 21.3062C42.0739 21.4107 41.8779 21.5676 41.4311 21.6957C40.987 21.8231 40.368 21.9004 39.5458 21.9004V22.9004ZM42.9408 21.9267L43.7276 22.544C44.4424 21.6328 44.7112 20.3613 44.7112 18.9128H43.7112H42.7112C42.7112 20.1734 42.4664 20.9113 42.154 21.3095L42.9408 21.9267ZM43.7112 18.9128H44.7112C44.7112 17.4663 44.4432 16.195 43.7223 15.2918L42.9408 15.9157L42.1592 16.5396C42.4655 16.9233 42.7112 17.65 42.7112 18.9128H43.7112ZM42.9408 15.9157L43.725 15.2952C43.294 14.7506 42.6674 14.4206 41.9825 14.2242C41.2949 14.0271 40.4733 13.9421 39.5458 13.9421V14.9421V15.9421C40.368 15.9421 40.987 16.0194 41.4311 16.1467C41.8779 16.2749 42.0739 16.4317 42.1566 16.5362L42.9408 15.9157ZM39.5458 14.9421V13.9421H38.6314V14.9421V15.9421H39.5458V14.9421ZM38.6314 14.9421H37.6314V22.9004H38.6314H39.6314V14.9421H38.6314ZM48.7402 25V24C48.725 24 48.8973 23.9969 49.0663 24.1659C49.2353 24.3349 49.2322 24.5072 49.2322 24.492H48.2322H47.2322C47.2322 24.8155 47.3137 25.2418 47.6521 25.5801C47.9904 25.9185 48.4167 26 48.7402 26V25ZM48.2322 24.492H49.2322V16.6184H48.2322H47.2322V24.492H48.2322ZM48.2322 16.6184H49.2322C49.2322 16.6032 49.2353 16.7755 49.0663 16.9445C48.8973 17.1135 48.725 17.1104 48.7402 17.1104V16.1104V15.1104C48.4167 15.1104 47.9904 15.192 47.6521 15.5303C47.3137 15.8687 47.2322 16.2949 47.2322 16.6184H48.2322ZM48.7402 16.1104V17.1104H50.0948V16.1104V15.1104H48.7402V16.1104ZM50.0948 16.1104V17.1104C50.1099 17.1104 49.9377 17.1135 49.7686 16.9445C49.5996 16.7755 49.6027 16.6032 49.6027 16.6184H50.6027H51.6027C51.6027 16.2949 51.5212 15.8687 51.1828 15.5303C50.8445 15.192 50.4182 15.1104 50.0948 15.1104V16.1104ZM50.6027 16.6184H49.6027V24.492H50.6027H51.6027V16.6184H50.6027ZM50.6027 24.492H49.6027C49.6027 24.5072 49.5996 24.3349 49.7686 24.1659C49.9377 23.9969 50.1099 24 50.0948 24V25V26C50.4182 26 50.8445 25.9185 51.1828 25.5801C51.5212 25.2418 51.6027 24.8155 51.6027 24.492H50.6027ZM50.0948 25V24H48.7402V25V26H50.0948V25ZM48.7402 14.8066V13.8066C48.725 13.8066 48.8973 13.8035 49.0663 13.9725C49.2353 14.1415 49.2322 14.3138 49.2322 14.2986H48.2322H47.2322C47.2322 14.6221 47.3137 15.0484 47.6521 15.3867C47.9904 15.7251 48.4167 15.8066 48.7402 15.8066V14.8066ZM48.2322 14.2986H49.2322V13.215H48.2322H47.2322V14.2986H48.2322ZM48.2322 13.215H49.2322C49.2322 13.1998 49.2353 13.3721 49.0663 13.5411C48.8973 13.7101 48.725 13.707 48.7402 13.707V12.707V11.707C48.4167 11.707 47.9904 11.7885 47.6521 12.1269C47.3137 12.4652 47.2322 12.8915 47.2322 13.215H48.2322ZM48.7402 12.707V13.707H50.0948V12.707V11.707H48.7402V12.707ZM50.0948 12.707V13.707C50.1099 13.707 49.9377 13.7101 49.7686 13.5411C49.5996 13.3721 49.6027 13.1998 49.6027 13.215H50.6027H51.6027C51.6027 12.8915 51.5212 12.4652 51.1828 12.1269C50.8445 11.7885 50.4182 11.707 50.0948 11.707V12.707ZM50.6027 13.215H49.6027V14.2986H50.6027H51.6027V13.215H50.6027ZM50.6027 14.2986H49.6027C49.6027 14.3138 49.5996 14.1415 49.7686 13.9725C49.9377 13.8035 50.1099 13.8066 50.0948 13.8066V14.8066V15.8066C50.4182 15.8066 50.8445 15.7251 51.1828 15.3867C51.5212 15.0484 51.6027 14.6221 51.6027 14.2986H50.6027ZM50.0948 14.8066V13.8066H48.7402V14.8066V15.8066H50.0948V14.8066ZM55.2592 17.1094H54.2592V18.1094H55.2592V17.1094ZM55.293 17.1094V18.1094H55.8679L56.1572 17.6126L55.293 17.1094ZM56.2836 16.1951L56.6617 17.1209L56.6728 17.1162L56.2836 16.1951ZM55.7248 18.2947L56.5616 18.8423L56.5647 18.8375L55.7248 18.2947ZM53.4135 25V24C53.3984 24 53.5706 23.9969 53.7397 24.1659C53.9087 24.3349 53.9056 24.5072 53.9056 24.492H52.9056H51.9056C51.9056 24.8155 51.9871 25.2418 52.3254 25.5801C52.6638 25.9185 53.0901 26 53.4135 26V25ZM52.9056 24.492H53.9056V16.6184H52.9056H51.9056V24.492H52.9056ZM52.9056 16.6184H53.9056C53.9056 16.6032 53.9087 16.7755 53.7397 16.9445C53.5706 17.1135 53.3984 17.1104 53.4135 17.1104V16.1104V15.1104C53.0901 15.1104 52.6638 15.192 52.3254 15.5303C51.9871 15.8687 51.9056 16.2949 51.9056 16.6184H52.9056ZM53.4135 16.1104V17.1104H54.7512V16.1104V15.1104H53.4135V16.1104ZM54.7512 16.1104V17.1104C54.7664 17.1104 54.5941 17.1135 54.4251 16.9445C54.2561 16.7755 54.2592 16.6032 54.2592 16.6184H55.2592H56.2592C56.2592 16.2949 56.1776 15.8687 55.8393 15.5303C55.501 15.192 55.0747 15.1104 54.7512 15.1104V16.1104ZM55.2592 16.6184H54.2592V17.1094H55.2592H56.2592V16.6184H55.2592ZM55.2592 17.1094V18.1094H55.293V17.1094V16.1094H55.2592V17.1094ZM55.293 17.1094L56.1572 17.6126C56.3279 17.3195 56.5023 17.186 56.6617 17.1208L56.2836 16.1951L55.9055 15.2693C55.2634 15.5316 54.7775 16.0076 54.4289 16.6063L55.293 17.1094ZM56.2836 16.1951L56.6728 17.1162C56.9197 17.0119 57.2626 16.9411 57.7313 16.9411V15.9411V14.9411C57.0712 14.9411 56.449 15.0396 55.8944 15.2739L56.2836 16.1951ZM57.7313 15.9411V16.9411C58.3825 16.9411 58.8533 17.1368 59.2228 17.4919L59.9156 16.7708L60.6085 16.0497C59.8266 15.2985 58.8411 14.9411 57.7313 14.9411V15.9411ZM59.9156 16.7708L59.2228 17.4919C59.491 17.7496 59.7792 18.3989 59.7792 19.8017H60.7792H61.7792C61.7792 18.2696 61.4917 16.8983 60.6085 16.0497L59.9156 16.7708ZM60.7792 19.8017H59.7792V24.492H60.7792H61.7792V19.8017H60.7792ZM60.7792 24.492H59.7792C59.7792 24.5072 59.7761 24.3349 59.9451 24.1659C60.1141 23.9969 60.2864 24 60.2712 24V25V26C60.5947 26 61.021 25.9185 61.3593 25.5801C61.6976 25.2418 61.7792 24.8155 61.7792 24.492H60.7792ZM60.2712 25V24H58.9166V25V26H60.2712V25ZM58.9166 25V24C58.9014 24 59.0737 23.9969 59.2427 24.1659C59.4117 24.3349 59.4086 24.5072 59.4086 24.492H58.4086H57.4086C57.4086 24.8155 57.4902 25.2418 57.8285 25.5801C58.1669 25.9185 58.5931 26 58.9166 26V25ZM58.4086 24.492H59.4086V20.4113H58.4086H57.4086V24.492H58.4086ZM58.4086 20.4113H59.4086C59.4086 19.7779 59.3871 19.2364 59.3392 18.798C59.2953 18.3953 59.2185 17.9573 59.0396 17.6173L58.1546 18.0831L57.2697 18.5488C57.2601 18.5306 57.3103 18.6414 57.351 19.0149C57.3879 19.3525 57.4086 19.8142 57.4086 20.4113H58.4086ZM58.1546 18.0831L59.0396 17.6173C58.6151 16.8108 57.7743 16.6005 57.0625 16.6005V17.6005V18.6005C57.2551 18.6005 57.3362 18.6295 57.3504 18.6358C57.3542 18.6375 57.3406 18.6319 57.3202 18.6135C57.299 18.5943 57.2814 18.571 57.2697 18.5488L58.1546 18.0831ZM57.0625 17.6005V16.6005C56.161 16.6005 55.3844 16.9793 54.885 17.7519L55.7248 18.2947L56.5647 18.8375C56.6636 18.6845 56.7787 18.6005 57.0625 18.6005V17.6005ZM55.7248 18.2947L54.888 17.7472C54.6225 18.153 54.4828 18.6724 54.4004 19.1981C54.3146 19.7449 54.2761 20.4022 54.2761 21.1563H55.2761H56.2761C56.2761 20.4599 56.3124 19.915 56.3762 19.5079C56.4434 19.0797 56.528 18.8936 56.5616 18.8422L55.7248 18.2947ZM55.2761 21.1563H54.2761V24.492H55.2761H56.2761V21.1563H55.2761ZM55.2761 24.492H54.2761C54.2761 24.5072 54.273 24.3349 54.442 24.1659C54.611 23.9969 54.7833 24 54.7681 24V25V26C55.0916 26 55.5179 25.9185 55.8562 25.5801C56.1946 25.2418 56.2761 24.8155 56.2761 24.492H55.2761ZM54.7681 25V24H53.4135V25V26H54.7681V25ZM63.6577 17.1772L62.9032 16.5209L62.9007 16.5238L63.6577 17.1772ZM70.0582 17.1094L69.3303 17.7951L70.0582 17.1094ZM65.097 21.3764V20.3764H63.996L64.1016 21.4724L65.097 21.3764ZM68.7883 22.8157L69.5732 23.4354L69.5796 23.4272L68.7883 22.8157ZM69.4994 22.6972L70.0202 21.8434L70.0139 21.8397L69.4994 22.6972ZM70.3461 23.2136L70.8669 22.36L70.8668 22.3599L70.3461 23.2136ZM70.49 23.9417L69.7243 23.2985L69.7226 23.3005L70.49 23.9417ZM65.1054 19.6832L64.1064 19.6394L64.0606 20.6832H65.1054V19.6832ZM68.7883 19.6832V20.6832H69.7883V19.6832H68.7883ZM68.3311 18.1931L67.5436 18.8094L67.548 18.815L68.3311 18.1931ZM65.6134 18.1677L66.3768 18.8137L66.3816 18.8079L65.6134 18.1677ZM62.591 20.5552H63.591C63.591 19.291 63.9037 18.4227 64.4148 17.8305L63.6577 17.1772L62.9007 16.5238C61.9893 17.5798 61.591 18.9634 61.591 20.5552H62.591ZM63.6577 17.1772L64.4122 17.8335C64.9021 17.2702 65.6127 16.9411 66.6886 16.9411V15.9411V14.9411C65.157 14.9411 63.8469 15.436 62.9032 16.5209L63.6577 17.1772ZM66.6886 15.9411V16.9411C68.042 16.9411 68.8527 17.2882 69.3303 17.7951L70.0582 17.1094L70.7861 16.4237C69.7962 15.3729 68.3605 14.9411 66.6886 14.9411V15.9411ZM70.0582 17.1094L69.3303 17.7951C69.8087 18.3029 70.1588 19.2475 70.1588 20.8685H71.1588H72.1588C72.1588 19.0352 71.7752 17.4737 70.7861 16.4237L70.0582 17.1094ZM71.1588 20.8685H70.1588C70.1588 20.9001 70.15 20.7377 70.3092 20.5671C70.4806 20.3836 70.6703 20.3764 70.6847 20.3764V21.3764V22.3764C71.0152 22.3764 71.442 22.2846 71.7714 21.9318C72.0886 21.5919 72.1588 21.1754 72.1588 20.8685H71.1588ZM70.6847 21.3764V20.3764H65.097V21.3764V22.3764H70.6847V21.3764ZM65.097 21.3764L64.1016 21.4724C64.1518 21.993 64.2457 22.4746 64.4074 22.8867C64.5679 23.296 64.8247 23.7097 65.2453 23.9838L65.7912 23.1459L66.3371 22.308C66.3852 22.3394 66.34 22.3368 66.2692 22.1563C66.1995 21.9786 66.1325 21.6968 66.0924 21.2805L65.097 21.3764ZM65.7912 23.1459L65.2453 23.9838C65.797 24.3432 66.4227 24.5099 67.0866 24.5099V23.5099V22.5099C66.7683 22.5099 66.5305 22.434 66.3371 22.308L65.7912 23.1459ZM67.0866 23.5099V24.5099C67.6172 24.5099 68.1574 24.4439 68.609 24.2181L68.1618 23.3237L67.7146 22.4293C67.6695 22.4518 67.4929 22.5099 67.0866 22.5099V23.5099ZM68.1618 23.3237L68.609 24.2181C68.9865 24.0293 69.3113 23.767 69.5732 23.4353L68.7883 22.8157L68.0034 22.1961C67.9266 22.2934 67.8337 22.3697 67.7146 22.4293L68.1618 23.3237ZM68.7883 22.8157L69.5796 23.4272C69.5698 23.4397 69.4732 23.5531 69.2744 23.5862C69.0844 23.6179 68.9724 23.5471 68.9849 23.5547L69.4994 22.6972L70.0139 21.8397C69.7443 21.6779 69.3726 21.5423 68.9456 21.6134C68.5097 21.6861 68.1986 21.9433 67.997 22.2043L68.7883 22.8157ZM69.4994 22.6972L68.9787 23.5509L69.8253 24.0673L70.3461 23.2136L70.8668 22.3599L70.0202 21.8435L69.4994 22.6972ZM70.3461 23.2136L69.8252 24.0673C69.888 24.1056 69.7056 24.0194 69.6508 23.742C69.5917 23.4433 69.7459 23.2727 69.7243 23.2985L70.49 23.9417L71.2557 24.5849C71.4711 24.3285 71.7198 23.8955 71.6128 23.3541C71.51 22.834 71.1372 22.5249 70.8669 22.36L70.3461 23.2136ZM70.49 23.9417L69.7226 23.3005C69.471 23.6016 69.1901 23.8116 68.8773 23.9489L69.2793 24.8645L69.6813 25.7802C70.2942 25.5111 70.8204 25.1058 71.2573 24.5829L70.49 23.9417ZM69.2793 24.8645L68.8773 23.9489C68.6129 24.065 68.0561 24.1693 67.0866 24.1693V25.1693V26.1693C68.1151 26.1693 69.0201 26.0705 69.6813 25.7802L69.2793 24.8645ZM67.0866 25.1693V24.1693C65.6101 24.1693 64.8098 23.7929 64.3912 23.292L63.6238 23.9333L62.8565 24.5745C63.8151 25.7217 65.3233 26.1693 67.0866 26.1693V25.1693ZM63.6238 23.9333L64.3912 23.292C63.8963 22.6997 63.591 21.8267 63.591 20.5552H62.591H61.591C61.591 22.1397 61.9743 23.5187 62.8565 24.5745L63.6238 23.9333ZM65.1054 19.6832V20.6832H68.7883V19.6832V18.6832H65.1054V19.6832ZM68.7883 19.6832H69.7883C69.7883 18.9041 69.5909 18.1715 69.1142 17.5712L68.3311 18.1931L67.548 18.815C67.6809 18.9824 67.7883 19.2431 67.7883 19.6832H68.7883ZM68.3311 18.1931L69.1186 17.5768C68.5635 16.8675 67.7341 16.609 66.8749 16.609V17.609V18.609C67.3477 18.609 67.4891 18.7399 67.5436 18.8094L68.3311 18.1931ZM66.8749 17.609V16.609C66.0792 16.609 65.365 16.9038 64.8452 17.5275L65.6134 18.1677L66.3816 18.8079C66.4827 18.6867 66.6094 18.609 66.8749 18.609V17.609ZM65.6134 18.1677L64.85 17.5218C64.3547 18.1072 64.141 18.8496 64.1064 19.6394L65.1054 19.6832L66.1045 19.727C66.1263 19.2299 66.2513 18.962 66.3768 18.8137L65.6134 18.1677Z" fill="white" mask="url(#path-10-outside-1_101_36)"/>
<mask id="path-12-outside-2_101_36" maskUnits="userSpaceOnUse" x="72.8047" y="11" width="11" height="15" fill="black">
<rect fill="white" x="72.8047" y="11" width="11" height="15"/>
<path d="M74.7519 25C74.3568 25 74.1593 24.7883 74.1593 24.365V13.4943C74.1593 13.071 74.3568 12.8594 74.7519 12.8594H81.4487C81.8721 12.8594 82.0837 13.0428 82.0837 13.4097V14.4087C82.0837 14.7756 81.8721 14.959 81.4487 14.959H76.6314V17.9053H80.7545C81.1778 17.9053 81.3895 18.0887 81.3895 18.4556V19.4546C81.3895 19.8215 81.1778 20.0049 80.7545 20.0049H76.6314V24.365C76.6314 24.7883 76.4339 25 76.0388 25H74.7519Z"/>
</mask>
<path d="M74.7519 25C74.3568 25 74.1593 24.7883 74.1593 24.365V13.4943C74.1593 13.071 74.3568 12.8594 74.7519 12.8594H81.4487C81.8721 12.8594 82.0837 13.0428 82.0837 13.4097V14.4087C82.0837 14.7756 81.8721 14.959 81.4487 14.959H76.6314V17.9053H80.7545C81.1778 17.9053 81.3895 18.0887 81.3895 18.4556V19.4546C81.3895 19.8215 81.1778 20.0049 80.7545 20.0049H76.6314V24.365C76.6314 24.7883 76.4339 25 76.0388 25H74.7519Z" fill="#A5C940"/>
<path d="M76.6314 14.959V13.959H75.6314V14.959H76.6314ZM76.6314 17.9053H75.6314V18.9053H76.6314V17.9053ZM76.6314 20.0049V19.0049H75.6314V20.0049H76.6314ZM74.7519 25V24C74.7269 24 74.8869 23.9965 75.0385 24.1589C75.1779 24.3083 75.1593 24.439 75.1593 24.365H74.1593H73.1593C73.1593 24.7143 73.2394 25.1625 73.5764 25.5236C73.9255 25.8976 74.3819 26 74.7519 26V25ZM74.1593 24.365H75.1593V13.4943H74.1593H73.1593V24.365H74.1593ZM74.1593 13.4943H75.1593C75.1593 13.4203 75.1779 13.551 75.0385 13.7004C74.8869 13.8628 74.7269 13.8594 74.7519 13.8594V12.8594V11.8594C74.3819 11.8594 73.9255 11.9618 73.5764 12.3358C73.2394 12.6969 73.1593 13.145 73.1593 13.4943H74.1593ZM74.7519 12.8594V13.8594H81.4487V12.8594V11.8594H74.7519V12.8594ZM81.4487 12.8594V13.8594C81.5386 13.8594 81.4192 13.8819 81.27 13.7526C81.1925 13.6854 81.1399 13.6039 81.1107 13.5279C81.0838 13.4579 81.0837 13.4118 81.0837 13.4097H82.0837H83.0837C83.0837 13.0319 82.9681 12.5777 82.5799 12.2413C82.2191 11.9286 81.7822 11.8594 81.4487 11.8594V12.8594ZM82.0837 13.4097H81.0837V14.4087H82.0837H83.0837V13.4097H82.0837ZM82.0837 14.4087H81.0837C81.0837 14.4066 81.0838 14.3605 81.1107 14.2905C81.1399 14.2145 81.1925 14.133 81.27 14.0657C81.4192 13.9365 81.5386 13.959 81.4487 13.959V14.959V15.959C81.7822 15.959 82.2191 15.8898 82.5799 15.5771C82.9681 15.2407 83.0837 14.7865 83.0837 14.4087H82.0837ZM81.4487 14.959V13.959H76.6314V14.959V15.959H81.4487V14.959ZM76.6314 14.959H75.6314V17.9053H76.6314H77.6314V14.959H76.6314ZM76.6314 17.9053V18.9053H80.7545V17.9053V16.9053H76.6314V17.9053ZM80.7545 17.9053V18.9053C80.8443 18.9053 80.725 18.9278 80.5758 18.7985C80.4982 18.7313 80.4457 18.6498 80.4164 18.5738C80.3895 18.5038 80.3895 18.4577 80.3895 18.4556H81.3895H82.3895C82.3895 18.0777 82.2738 17.6236 81.8857 17.2872C81.5249 16.9745 81.088 16.9053 80.7545 16.9053V17.9053ZM81.3895 18.4556H80.3895V19.4546H81.3895H82.3895V18.4556H81.3895ZM81.3895 19.4546H80.3895C80.3895 19.4525 80.3895 19.4063 80.4164 19.3364C80.4457 19.2604 80.4982 19.1789 80.5758 19.1116C80.725 18.9824 80.8443 19.0049 80.7545 19.0049V20.0049V21.0049C81.088 21.0049 81.5249 20.9357 81.8857 20.623C82.2738 20.2866 82.3895 19.8324 82.3895 19.4546H81.3895ZM80.7545 20.0049V19.0049H76.6314V20.0049V21.0049H80.7545V20.0049ZM76.6314 20.0049H75.6314V24.365H76.6314H77.6314V20.0049H76.6314ZM76.6314 24.365H75.6314C75.6314 24.439 75.6128 24.3083 75.7522 24.1589C75.9038 23.9965 76.0639 24 76.0388 24V25V26C76.4088 26 76.8652 25.8976 77.2143 25.5236C77.5513 25.1625 77.6314 24.7143 77.6314 24.365H76.6314ZM76.0388 25V24H74.7519V25V26H76.0388V25Z" fill="white" mask="url(#path-12-outside-2_101_36)"/>
<mask id="path-14-outside-3_101_36" maskUnits="userSpaceOnUse" x="85.3594" y="12" width="9" height="15" fill="black">
<rect fill="white" x="85.3594" y="12" width="9" height="15"/>
<path d="M87.2145 17.8037C86.8815 17.8037 86.715 17.6626 86.715 17.3804V16.5337C86.715 16.2515 86.8815 16.1104 87.2145 16.1104H87.7902V15.8141C87.7902 15.5601 87.8494 15.3287 87.968 15.1199L88.6199 13.9769C88.744 13.7624 88.8908 13.6552 89.0601 13.6552H89.6528C89.9914 13.6552 90.1607 13.8245 90.1607 14.1632V16.1104H91.5323C91.8653 16.1104 92.0318 16.2515 92.0318 16.5337V17.3804C92.0318 17.6626 91.8653 17.8037 91.5323 17.8037H90.1607V22.0029C90.1607 22.5786 90.2002 22.9935 90.2793 23.2475C90.3639 23.4958 90.5784 23.62 90.9227 23.62C91.0977 23.62 91.2952 23.5918 91.5153 23.5353C91.7355 23.4733 91.9076 23.414 92.0318 23.3575C92.2293 23.2672 92.3591 23.3321 92.4212 23.5523L92.6752 24.5174C92.726 24.7093 92.6526 24.8504 92.4551 24.9407C92.2688 25.0254 92.012 25.1016 91.6847 25.1693C91.3629 25.2427 91.0384 25.2794 90.711 25.2794C89.9039 25.2794 89.2153 25.1129 88.6453 24.7799C88.0752 24.4469 87.7902 23.7611 87.7902 22.7226V17.8037H87.2145Z"/>
</mask>
<path d="M87.2145 17.8037C86.8815 17.8037 86.715 17.6626 86.715 17.3804V16.5337C86.715 16.2515 86.8815 16.1104 87.2145 16.1104H87.7902V15.8141C87.7902 15.5601 87.8494 15.3287 87.968 15.1199L88.6199 13.9769C88.744 13.7624 88.8908 13.6552 89.0601 13.6552H89.6528C89.9914 13.6552 90.1607 13.8245 90.1607 14.1632V16.1104H91.5323C91.8653 16.1104 92.0318 16.2515 92.0318 16.5337V17.3804C92.0318 17.6626 91.8653 17.8037 91.5323 17.8037H90.1607V22.0029C90.1607 22.5786 90.2002 22.9935 90.2793 23.2475C90.3639 23.4958 90.5784 23.62 90.9227 23.62C91.0977 23.62 91.2952 23.5918 91.5153 23.5353C91.7355 23.4733 91.9076 23.414 92.0318 23.3575C92.2293 23.2672 92.3591 23.3321 92.4212 23.5523L92.6752 24.5174C92.726 24.7093 92.6526 24.8504 92.4551 24.9407C92.2688 25.0254 92.012 25.1016 91.6847 25.1693C91.3629 25.2427 91.0384 25.2794 90.711 25.2794C89.9039 25.2794 89.2153 25.1129 88.6453 24.7799C88.0752 24.4469 87.7902 23.7611 87.7902 22.7226V17.8037H87.2145Z" fill="#A3C73D"/>
<path d="M87.7902 16.1104V17.1104H88.7902V16.1104H87.7902ZM87.968 15.1199L87.0993 14.6244L87.0983 14.6263L87.968 15.1199ZM88.6199 13.9769L87.7544 13.4759L87.7512 13.4815L88.6199 13.9769ZM90.1607 16.1104H89.1607V17.1104H90.1607V16.1104ZM90.1607 17.8037V16.8037H89.1607V17.8037H90.1607ZM90.2793 23.2475L89.3244 23.5446L89.3284 23.5574L89.3327 23.5702L90.2793 23.2475ZM91.5153 23.5353L91.7637 24.504L91.7753 24.501L91.7868 24.4978L91.5153 23.5353ZM92.0318 23.3575L92.4456 24.2679L92.4475 24.267L92.0318 23.3575ZM92.4212 23.5523L93.3883 23.2978L93.3861 23.2893L93.3837 23.2808L92.4212 23.5523ZM92.6752 24.5174L91.7081 24.7719L91.7085 24.7733L92.6752 24.5174ZM92.4551 24.9407L92.8689 25.8511L92.8708 25.8502L92.4551 24.9407ZM91.6847 25.1693L91.482 24.1901L91.4721 24.1921L91.4623 24.1944L91.6847 25.1693ZM87.7902 17.8037H88.7902V16.8037H87.7902V17.8037ZM87.2145 17.8037V16.8037C87.1654 16.8037 87.3151 16.7898 87.4864 16.935C87.6893 17.107 87.715 17.32 87.715 17.3804H86.715H85.715C85.715 17.7229 85.8238 18.1476 86.1933 18.4607C86.5311 18.747 86.9305 18.8037 87.2145 18.8037V17.8037ZM86.715 17.3804H87.715V16.5337H86.715H85.715V17.3804H86.715ZM86.715 16.5337H87.715C87.715 16.5941 87.6893 16.8071 87.4864 16.9791C87.3151 17.1243 87.1654 17.1104 87.2145 17.1104V16.1104V15.1104C86.9305 15.1104 86.5311 15.1671 86.1933 15.4534C85.8238 15.7665 85.715 16.1912 85.715 16.5337H86.715ZM87.2145 16.1104V17.1104H87.7902V16.1104V15.1104H87.2145V16.1104ZM87.7902 16.1104H88.7902V15.8141H87.7902H86.7902V16.1104H87.7902ZM87.7902 15.8141H88.7902C88.7902 15.7228 88.8095 15.6631 88.8377 15.6135L87.968 15.1199L87.0983 14.6263C86.8894 14.9943 86.7902 15.3974 86.7902 15.8141H87.7902ZM87.968 15.1199L88.8366 15.6153L89.4885 14.4724L88.6199 13.9769L87.7512 13.4815L87.0993 14.6244L87.968 15.1199ZM88.6199 13.9769L89.4853 14.478C89.5016 14.4498 89.4846 14.4907 89.4131 14.543C89.3285 14.6048 89.2035 14.6552 89.0601 14.6552V13.6552V12.6552C88.3835 12.6552 87.9664 13.1097 87.7544 13.4759L88.6199 13.9769ZM89.0601 13.6552V14.6552H89.6528V13.6552V12.6552H89.0601V13.6552ZM89.6528 13.6552V14.6552C89.6679 14.6552 89.4956 14.6583 89.3266 14.4893C89.1576 14.3203 89.1607 14.148 89.1607 14.1632H90.1607H91.1607C91.1607 13.8397 91.0792 13.4134 90.7408 13.0751C90.4025 12.7368 89.9762 12.6552 89.6528 12.6552V13.6552ZM90.1607 14.1632H89.1607V16.1104H90.1607H91.1607V14.1632H90.1607ZM90.1607 16.1104V17.1104H91.5323V16.1104V15.1104H90.1607V16.1104ZM91.5323 16.1104V17.1104C91.5813 17.1104 91.4317 17.1243 91.2604 16.9791C91.0574 16.8071 91.0318 16.5941 91.0318 16.5337H92.0318H93.0318C93.0318 16.1912 92.9229 15.7665 92.5534 15.4534C92.2156 15.1671 91.8162 15.1104 91.5323 15.1104V16.1104ZM92.0318 16.5337H91.0318V17.3804H92.0318H93.0318V16.5337H92.0318ZM92.0318 17.3804H91.0318C91.0318 17.32 91.0574 17.107 91.2604 16.935C91.4317 16.7898 91.5813 16.8037 91.5323 16.8037V17.8037V18.8037C91.8162 18.8037 92.2156 18.747 92.5534 18.4607C92.9229 18.1476 93.0318 17.7229 93.0318 17.3804H92.0318ZM91.5323 17.8037V16.8037H90.1607V17.8037V18.8037H91.5323V17.8037ZM90.1607 17.8037H89.1607V22.0029H90.1607H91.1607V17.8037H90.1607ZM90.1607 22.0029H89.1607C89.1607 22.5902 89.1972 23.1357 89.3244 23.5446L90.2793 23.2475L91.2341 22.9504C91.2033 22.8513 91.1607 22.5671 91.1607 22.0029H90.1607ZM90.2793 23.2475L89.3327 23.5702C89.4481 23.9085 89.6731 24.2016 90.0026 24.3923C90.3101 24.5703 90.6399 24.62 90.9227 24.62V23.62V22.62C90.8612 22.62 90.9116 22.6076 91.0046 22.6614C91.0538 22.6899 91.104 22.731 91.1468 22.7843C91.1891 22.8369 91.2131 22.8876 91.2258 22.9248L90.2793 23.2475ZM90.9227 23.62V24.62C91.202 24.62 91.4852 24.5754 91.7637 24.504L91.5153 23.5353L91.267 22.5667C91.1053 22.6081 90.9933 22.62 90.9227 22.62V23.62ZM91.5153 23.5353L91.7868 24.4978C92.0278 24.4298 92.2549 24.3546 92.4456 24.2679L92.0318 23.3575L91.618 22.4472C91.5603 22.4734 91.4431 22.5167 91.2439 22.5729L91.5153 23.5353ZM92.0318 23.3575L92.4475 24.267C92.4111 24.2837 92.1485 24.3922 91.8301 24.2329C91.5293 24.0825 91.4609 23.8313 91.4588 23.8237L92.4212 23.5523L93.3837 23.2808C93.3195 23.0531 93.1551 22.6594 92.7245 22.4441C92.2762 22.2199 91.8499 22.3411 91.616 22.4481L92.0318 23.3575ZM92.4212 23.5523L91.4541 23.8068L91.7081 24.7719L92.6752 24.5174L93.6423 24.2629L93.3883 23.2978L92.4212 23.5523ZM92.6752 24.5174L91.7085 24.7733C91.6867 24.6908 91.6663 24.5073 91.7711 24.3058C91.8691 24.1174 92.0087 24.0452 92.0393 24.0313L92.4551 24.9407L92.8708 25.8502C93.099 25.7459 93.3741 25.5581 93.5455 25.2285C93.7236 24.886 93.7145 24.5359 93.6419 24.2615L92.6752 24.5174ZM92.4551 24.9407L92.0413 24.0304C91.9515 24.0712 91.7763 24.1292 91.482 24.1901L91.6847 25.1693L91.8873 26.1486C92.2478 26.074 92.5861 25.9796 92.8689 25.8511L92.4551 24.9407ZM91.6847 25.1693L91.4623 24.1944C91.2129 24.2512 90.963 24.2794 90.711 24.2794V25.2794V26.2794C91.1138 26.2794 91.5129 26.2342 91.907 26.1443L91.6847 25.1693ZM90.711 25.2794V24.2794C90.0419 24.2794 89.536 24.1421 89.1497 23.9164L88.6453 24.7799L88.1409 25.6433C88.8947 26.0837 89.7659 26.2794 90.711 26.2794V25.2794ZM88.6453 24.7799L89.1497 23.9164C89.0362 23.8501 88.7902 23.6222 88.7902 22.7226H87.7902H86.7902C86.7902 23.9 87.1142 25.0436 88.1409 25.6433L88.6453 24.7799ZM87.7902 22.7226H88.7902V17.8037H87.7902H86.7902V22.7226H87.7902ZM87.7902 17.8037V16.8037H87.2145V17.8037V18.8037H87.7902V17.8037Z" fill="white" mask="url(#path-14-outside-3_101_36)"/>
<mask id="path-16-outside-4_101_36" maskUnits="userSpaceOnUse" x="80.8047" y="8.76172" width="7" height="10" fill="black">
<rect fill="white" x="80.8047" y="8.76172" width="7" height="10"/>
<path d="M83.2002 10.7617C83.261 10.8641 83.2606 10.954 83.2686 11.04C83.3136 11.537 83.3265 12.0356 83.3545 12.5332C83.3753 12.9021 83.3976 13.2708 83.46 13.6377C83.4753 13.7271 83.4934 13.8179 83.543 13.9023C83.5543 13.922 83.567 13.9435 83.6045 13.9443C83.6419 13.945 83.6525 13.9222 83.6641 13.9023C83.6945 13.8469 83.7145 13.7886 83.7236 13.7295C83.8009 13.3346 83.8071 12.9366 83.8232 12.5391C83.8434 12.0388 83.846 11.5379 83.8896 11.0381C83.8997 10.9627 83.9154 10.8877 83.9365 10.8135C83.94 10.7992 83.9479 10.776 83.9785 10.7793C83.9981 10.7814 84.0055 10.7992 84.0088 10.8135C84.0212 10.8674 84.04 10.9214 84.0459 10.9756C84.0847 11.339 84.0948 11.7039 84.1113 12.0684C84.1342 12.585 84.1447 13.1022 84.2334 13.6162C84.2495 13.7105 84.2701 13.8051 84.3252 13.8936C84.3401 13.9175 84.3534 13.9453 84.3984 13.9463C84.4485 13.9473 84.4646 13.9179 84.4805 13.8916C84.4893 13.8762 84.4966 13.8598 84.5029 13.8438C84.5494 13.7361 84.5659 13.6247 84.5781 13.5137C84.6306 13.0284 84.636 12.542 84.6396 12.0557C84.6433 11.7244 84.6437 11.3925 84.6641 11.0615C84.669 10.9857 84.686 10.9103 84.6992 10.835C84.7027 10.8147 84.7 10.7854 84.7373 10.7832C84.7745 10.7811 84.7763 10.8101 84.7832 10.8301C84.7915 10.8507 84.7975 10.8723 84.8018 10.8936C84.8218 11.0259 84.8484 11.1582 84.8584 11.291C84.9035 11.8955 84.9402 12.5003 84.9873 13.1045C85.0063 13.3468 85.0264 13.5905 85.1064 13.8281C85.1212 13.8722 85.1225 13.9423 85.1982 13.9424C85.2807 13.9421 85.2815 13.8706 85.2969 13.8242C85.3701 13.6078 85.3809 13.385 85.3936 13.1641C85.4295 12.5441 85.4318 11.9236 85.4414 11.3037C85.4437 11.1689 85.4544 11.0326 85.4697 10.8975C85.4752 10.858 85.4539 10.7884 85.5166 10.7861C85.5789 10.784 85.5833 10.8536 85.5977 10.8955C85.7142 11.2321 85.7529 11.5776 85.7988 11.9209C85.8488 12.3003 85.8851 12.6809 85.9102 13.0615C85.9481 13.6378 85.9873 14.2142 85.9414 14.791C85.922 15.0359 85.8231 15.2624 85.6191 15.4648C85.4938 15.5897 85.3524 15.7056 85.2109 15.8213C84.9275 16.0528 84.7856 16.3132 84.7939 16.625C84.7981 16.7779 84.8026 16.9311 84.8066 17.084H83.9443C83.9484 16.8754 83.9497 16.6666 83.9482 16.458C83.9472 16.3772 83.9278 16.297 83.8896 16.2207C83.8203 16.0801 83.6868 15.9683 83.5498 15.8594C83.3351 15.689 83.1446 15.5081 83.0078 15.2998C82.8351 15.0367 82.814 14.7562 82.8076 14.4756C82.7821 13.3397 82.8947 12.2087 83.0947 11.082C83.1127 10.9803 83.1234 10.8752 83.2002 10.7617Z"/>
</mask>
<path d="M83.2002 10.7617C83.261 10.8641 83.2606 10.954 83.2686 11.04C83.3136 11.537 83.3265 12.0356 83.3545 12.5332C83.3753 12.9021 83.3976 13.2708 83.46 13.6377C83.4753 13.7271 83.4934 13.8179 83.543 13.9023C83.5543 13.922 83.567 13.9435 83.6045 13.9443C83.6419 13.945 83.6525 13.9222 83.6641 13.9023C83.6945 13.8469 83.7145 13.7886 83.7236 13.7295C83.8009 13.3346 83.8071 12.9366 83.8232 12.5391C83.8434 12.0388 83.846 11.5379 83.8896 11.0381C83.8997 10.9627 83.9154 10.8877 83.9365 10.8135C83.94 10.7992 83.9479 10.776 83.9785 10.7793C83.9981 10.7814 84.0055 10.7992 84.0088 10.8135C84.0212 10.8674 84.04 10.9214 84.0459 10.9756C84.0847 11.339 84.0948 11.7039 84.1113 12.0684C84.1342 12.585 84.1447 13.1022 84.2334 13.6162C84.2495 13.7105 84.2701 13.8051 84.3252 13.8936C84.3401 13.9175 84.3534 13.9453 84.3984 13.9463C84.4485 13.9473 84.4646 13.9179 84.4805 13.8916C84.4893 13.8762 84.4966 13.8598 84.5029 13.8438C84.5494 13.7361 84.5659 13.6247 84.5781 13.5137C84.6306 13.0284 84.636 12.542 84.6396 12.0557C84.6433 11.7244 84.6437 11.3925 84.6641 11.0615C84.669 10.9857 84.686 10.9103 84.6992 10.835C84.7027 10.8147 84.7 10.7854 84.7373 10.7832C84.7745 10.7811 84.7763 10.8101 84.7832 10.8301C84.7915 10.8507 84.7975 10.8723 84.8018 10.8936C84.8218 11.0259 84.8484 11.1582 84.8584 11.291C84.9035 11.8955 84.9402 12.5003 84.9873 13.1045C85.0063 13.3468 85.0264 13.5905 85.1064 13.8281C85.1212 13.8722 85.1225 13.9423 85.1982 13.9424C85.2807 13.9421 85.2815 13.8706 85.2969 13.8242C85.3701 13.6078 85.3809 13.385 85.3936 13.1641C85.4295 12.5441 85.4318 11.9236 85.4414 11.3037C85.4437 11.1689 85.4544 11.0326 85.4697 10.8975C85.4752 10.858 85.4539 10.7884 85.5166 10.7861C85.5789 10.784 85.5833 10.8536 85.5977 10.8955C85.7142 11.2321 85.7529 11.5776 85.7988 11.9209C85.8488 12.3003 85.8851 12.6809 85.9102 13.0615C85.9481 13.6378 85.9873 14.2142 85.9414 14.791C85.922 15.0359 85.8231 15.2624 85.6191 15.4648C85.4938 15.5897 85.3524 15.7056 85.2109 15.8213C84.9275 16.0528 84.7856 16.3132 84.7939 16.625C84.7981 16.7779 84.8026 16.9311 84.8066 17.084H83.9443C83.9484 16.8754 83.9497 16.6666 83.9482 16.458C83.9472 16.3772 83.9278 16.297 83.8896 16.2207C83.8203 16.0801 83.6868 15.9683 83.5498 15.8594C83.3351 15.689 83.1446 15.5081 83.0078 15.2998C82.8351 15.0367 82.814 14.7562 82.8076 14.4756C82.7821 13.3397 82.8947 12.2087 83.0947 11.082C83.1127 10.9803 83.1234 10.8752 83.2002 10.7617Z" fill="#A3C73D"/>
<path d="M83.2002 10.7617L84.0602 10.2514L83.2555 8.89544L82.3719 10.2014L83.2002 10.7617ZM83.2686 11.04L84.2645 10.9497L84.2643 10.948L83.2686 11.04ZM83.3545 12.5332L82.3561 12.5893L82.3561 12.5895L83.3545 12.5332ZM83.46 13.6377L82.4741 13.8054L82.4743 13.8065L83.46 13.6377ZM83.543 13.9023L84.4086 13.4016L84.4051 13.3957L83.543 13.9023ZM83.6045 13.9443L83.5818 14.9441L83.5861 14.9442L83.6045 13.9443ZM83.6641 13.9023L84.5272 14.4074L84.534 14.3957L84.5405 14.3839L83.6641 13.9023ZM83.7236 13.7295L82.7422 13.5375L82.7384 13.557L82.7354 13.5768L83.7236 13.7295ZM83.8232 12.5391L84.8224 12.5796L84.8224 12.5794L83.8232 12.5391ZM83.8896 11.0381L82.8984 10.9061L82.8954 10.9285L82.8934 10.951L83.8896 11.0381ZM83.9365 10.8135L84.8985 11.0865L84.9038 11.068L84.9083 11.0492L83.9365 10.8135ZM83.9785 10.7793L84.0872 9.78522L84.0854 9.78502L83.9785 10.7793ZM84.0088 10.8135L83.034 11.0365L83.0344 11.0384L84.0088 10.8135ZM84.0459 10.9756L85.0403 10.8695L85.04 10.8671L84.0459 10.9756ZM84.1113 12.0684L85.1104 12.0242L85.1103 12.023L84.1113 12.0684ZM84.2334 13.6162L85.2191 13.4476L85.2188 13.4461L84.2334 13.6162ZM84.3252 13.8936L85.1752 13.3667L85.1738 13.3645L84.3252 13.8936ZM84.3984 13.9463L84.377 14.9461L84.3785 14.9461L84.3984 13.9463ZM84.4805 13.8916L85.3363 14.4089L85.3428 14.3981L85.3491 14.3871L84.4805 13.8916ZM84.5029 13.8438L83.5848 13.4475L83.5782 13.4627L83.5721 13.4782L84.5029 13.8438ZM84.5781 13.5137L85.5721 13.6232L85.5723 13.6212L84.5781 13.5137ZM84.6396 12.0557L83.6397 12.0446L83.6397 12.0481L84.6396 12.0557ZM84.6641 11.0615L83.6662 10.9967L83.666 11L84.6641 11.0615ZM84.6992 10.835L85.6841 11.008L85.6849 11.0033L84.6992 10.835ZM84.7373 10.7832L84.68 9.78485L84.6791 9.7849L84.7373 10.7832ZM84.7832 10.8301L83.8371 11.154L83.8455 11.1784L83.8551 11.2024L84.7832 10.8301ZM84.8018 10.8936L85.7905 10.7442L85.787 10.7208L85.7824 10.6977L84.8018 10.8936ZM84.8584 11.291L85.8556 11.2166L85.8556 11.216L84.8584 11.291ZM84.9873 13.1045L83.9903 13.1823L83.9904 13.1826L84.9873 13.1045ZM85.1064 13.8281L86.0546 13.5103L86.0542 13.509L85.1064 13.8281ZM85.1982 13.9424L85.1966 14.9424L85.2017 14.9424L85.1982 13.9424ZM85.2969 13.8242L84.3497 13.5035L84.3479 13.5088L85.2969 13.8242ZM85.3936 13.1641L84.3952 13.1062L84.3952 13.1069L85.3936 13.1641ZM85.4414 11.3037L84.4415 11.2869L84.4415 11.2882L85.4414 11.3037ZM85.4697 10.8975L84.4793 10.7592L84.4775 10.7721L84.4761 10.7851L85.4697 10.8975ZM85.5166 10.7861L85.4819 9.78673L85.4801 9.7868L85.5166 10.7861ZM85.5977 10.8955L84.6515 11.2192L84.6527 11.2227L85.5977 10.8955ZM85.7988 11.9209L86.7903 11.7903L86.79 11.7883L85.7988 11.9209ZM85.9102 13.0615L86.908 12.9958L86.908 12.9957L85.9102 13.0615ZM85.9414 14.791L84.9446 14.7117L84.9445 14.7119L85.9414 14.791ZM85.6191 15.4648L84.9147 14.7551L84.9133 14.7565L85.6191 15.4648ZM85.2109 15.8213L85.8436 16.5957L85.8442 16.5953L85.2109 15.8213ZM84.7939 16.625L83.7943 16.6516L83.7943 16.6522L84.7939 16.625ZM84.8066 17.084V18.084H85.8337L85.8063 17.0573L84.8066 17.084ZM83.9443 17.084L82.9445 17.0645L82.9246 18.084H83.9443V17.084ZM83.9482 16.458L84.9482 16.4511L84.9482 16.4454L83.9482 16.458ZM83.8896 16.2207L82.9927 16.6629L82.9954 16.6683L83.8896 16.2207ZM83.5498 15.8594L84.172 15.0765L84.1714 15.076L83.5498 15.8594ZM83.0078 15.2998L83.8437 14.751L83.8437 14.7509L83.0078 15.2998ZM82.8076 14.4756L81.8079 14.498L81.8079 14.4982L82.8076 14.4756ZM83.0947 11.082L84.0793 11.2568L84.0795 11.2559L83.0947 11.082ZM83.2002 10.7617L82.3402 11.2721C82.3218 11.2411 82.3061 11.2075 82.2937 11.1728C82.2814 11.1385 82.2746 11.1091 82.2708 11.0886C82.2673 11.0697 82.2666 11.0588 82.2673 11.0662C82.2676 11.0703 82.2681 11.0753 82.269 11.0872C82.2698 11.0971 82.2711 11.1141 82.2728 11.1321L83.2686 11.04L84.2643 10.948C84.264 10.9442 84.2613 10.5903 84.0602 10.2514L83.2002 10.7617ZM83.2686 11.04L82.2726 11.1304C82.3158 11.6062 82.3258 12.0498 82.3561 12.5893L83.3545 12.5332L84.3529 12.4771C84.3273 12.0215 84.3115 11.4678 84.2645 10.9497L83.2686 11.04ZM83.3545 12.5332L82.3561 12.5895C82.3766 12.9531 82.401 13.3754 82.4741 13.8054L83.46 13.6377L84.4458 13.47C84.3941 13.1663 84.374 12.851 84.3529 12.4769L83.3545 12.5332ZM83.46 13.6377L82.4743 13.8065C82.4899 13.8975 82.5297 14.1519 82.6808 14.409L83.543 13.9023L84.4051 13.3957C84.4334 13.4439 84.4461 13.483 84.4505 13.4983C84.4525 13.5056 84.4528 13.508 84.4518 13.5028C84.4506 13.497 84.4488 13.4877 84.4456 13.4689L83.46 13.6377ZM83.543 13.9023L82.6774 14.4031C82.6777 14.4037 82.7016 14.446 82.7342 14.4924C82.7698 14.5431 82.8278 14.6166 82.9136 14.6901C83.1117 14.8596 83.3509 14.9388 83.5818 14.9441L83.6045 13.9443L83.6272 12.9446C83.8206 12.949 84.0347 13.017 84.2142 13.1707C84.3541 13.2904 84.4251 13.4302 84.4086 13.4016L83.543 13.9023ZM83.6045 13.9443L83.5861 14.9442C83.6994 14.9462 83.8324 14.9309 83.9719 14.8798C84.1143 14.8277 84.2312 14.75 84.323 14.6651C84.4098 14.5849 84.4647 14.5067 84.4931 14.463C84.5137 14.4314 84.5419 14.3822 84.5272 14.4074L83.6641 13.9023L82.801 13.3973C82.7804 13.4324 82.803 13.3934 82.8171 13.3717C82.8392 13.3378 82.8869 13.2691 82.9649 13.197C83.0479 13.1201 83.1545 13.0493 83.284 13.0019C83.4107 12.9555 83.5283 12.9428 83.6229 12.9445L83.6045 13.9443ZM83.6641 13.9023L84.5405 14.3839C84.6248 14.2304 84.6842 14.0613 84.7119 13.8822L83.7236 13.7295L82.7354 13.5768C82.7448 13.5159 82.7643 13.4634 82.7876 13.4208L83.6641 13.9023ZM83.7236 13.7295L84.705 13.9215C84.8007 13.4323 84.8079 12.9386 84.8224 12.5796L83.8232 12.5391L82.8241 12.4986C82.8064 12.9345 82.8011 13.2368 82.7422 13.5375L83.7236 13.7295ZM83.8232 12.5391L84.8224 12.5794C84.8446 12.0312 84.8448 11.5949 84.8859 11.1251L83.8896 11.0381L82.8934 10.951C82.8471 11.4809 82.8423 12.0465 82.8241 12.4987L83.8232 12.5391ZM83.8896 11.0381L84.8809 11.1701C84.8843 11.1445 84.89 11.1166 84.8985 11.0865L83.9365 10.8135L82.9745 10.5404C82.9409 10.6588 82.9151 10.7809 82.8984 10.9061L83.8896 11.0381ZM83.9365 10.8135L84.9083 11.0492C84.9047 11.0644 84.8638 11.2599 84.7017 11.4462C84.6092 11.5525 84.4802 11.6533 84.3138 11.7164C84.1496 11.7786 83.9946 11.7868 83.8717 11.7736L83.9785 10.7793L84.0854 9.78502C83.7627 9.75035 83.4252 9.86646 83.1929 10.1334C83.0184 10.334 82.9719 10.5483 82.9647 10.5777L83.9365 10.8135ZM83.9785 10.7793L83.8698 11.7734C83.5524 11.7387 83.3216 11.56 83.1904 11.3791C83.0806 11.2279 83.0452 11.0855 83.034 11.0365L84.0088 10.8135L84.9836 10.5905C84.9691 10.5272 84.9283 10.3688 84.8092 10.2046C84.6685 10.0107 84.4242 9.82207 84.0872 9.78522L83.9785 10.7793ZM84.0088 10.8135L83.0344 11.0384C83.0414 11.0687 83.0484 11.0953 83.0528 11.1118C83.0547 11.1189 83.0576 11.1295 83.0586 11.1332C83.0601 11.139 83.061 11.1423 83.0616 11.1447C83.0629 11.1497 83.0617 11.1456 83.0599 11.1366C83.058 11.1272 83.0545 11.1089 83.0518 11.0841L84.0459 10.9756L85.04 10.8671C85.0291 10.7672 85.0085 10.6847 84.998 10.6442C84.9932 10.6259 84.9865 10.601 84.9852 10.5961C84.9824 10.5856 84.9824 10.5852 84.9832 10.5885L84.0088 10.8135ZM84.0459 10.9756L83.0515 11.0816C83.0861 11.4056 83.0947 11.725 83.1124 12.1137L84.1113 12.0684L85.1103 12.023C85.0949 11.6829 85.0832 11.2724 85.0403 10.8695L84.0459 10.9756ZM84.1113 12.0684L83.1123 12.1126C83.1336 12.5935 83.1455 13.193 83.248 13.7863L84.2334 13.6162L85.2188 13.4461C85.1438 13.0113 85.1348 12.5765 85.1104 12.0242L84.1113 12.0684ZM84.2334 13.6162L83.2477 13.7848C83.2668 13.8964 83.3115 14.1577 83.4766 14.4226L84.3252 13.8936L85.1738 13.3645C85.2025 13.4106 85.2164 13.4495 85.222 13.468C85.2245 13.4765 85.2252 13.4802 85.2244 13.4767C85.2236 13.4727 85.222 13.4645 85.2191 13.4476L84.2334 13.6162ZM84.3252 13.8936L83.4752 14.4204C83.4582 14.393 83.4896 14.4443 83.5075 14.471C83.5351 14.5118 83.5878 14.5849 83.6693 14.6607C83.8661 14.8438 84.118 14.9405 84.377 14.9461L84.3984 13.9463L84.4198 12.9465C84.512 12.9485 84.6229 12.9653 84.7403 13.0121C84.8595 13.0596 84.9566 13.1265 85.0317 13.1964C85.1023 13.2622 85.1461 13.3237 85.1656 13.3526C85.1755 13.3672 85.1996 13.4061 85.1752 13.3667L84.3252 13.8936ZM84.3984 13.9463L84.3785 14.9461C84.6302 14.9511 84.8906 14.8706 85.1032 14.6883C85.2627 14.5515 85.3543 14.379 85.3363 14.4089L84.4805 13.8916L83.6247 13.3743C83.5907 13.4305 83.6664 13.2858 83.8014 13.17C83.8831 13.1 83.9848 13.0376 84.1048 12.9963C84.2223 12.9558 84.3309 12.9447 84.4184 12.9465L84.3984 13.9463ZM84.4805 13.8916L85.3491 14.3871C85.3888 14.3174 85.416 14.2543 85.4337 14.2093L84.5029 13.8438L83.5721 13.4782C83.5772 13.4652 83.5897 13.4349 83.6119 13.3961L84.4805 13.8916ZM84.5029 13.8438L85.4211 14.24C85.5305 13.9865 85.5583 13.7481 85.5721 13.6232L84.5781 13.5137L83.5841 13.4041C83.5817 13.4262 83.5798 13.4419 83.578 13.4544C83.5762 13.4667 83.5749 13.4735 83.5743 13.4766C83.573 13.4824 83.5752 13.4698 83.5848 13.4475L84.5029 13.8438ZM84.5781 13.5137L85.5723 13.6212C85.6309 13.0791 85.636 12.5448 85.6396 12.0632L84.6396 12.0557L83.6397 12.0481C83.636 12.5393 83.6302 12.9778 83.5839 13.4062L84.5781 13.5137ZM84.6396 12.0557L85.6396 12.0668C85.6434 11.7204 85.6437 11.422 85.6622 11.1231L84.6641 11.0615L83.666 11C83.6436 11.3631 83.6432 11.7283 83.6397 12.0446L84.6396 12.0557ZM84.6641 11.0615L85.662 11.1263C85.6611 11.1391 85.6601 11.1405 85.6639 11.1183C85.6658 11.1073 85.6681 11.095 85.6717 11.0757C85.6749 11.0585 85.6796 11.0336 85.6841 11.008L84.6992 10.835L83.7143 10.6619C83.7123 10.6732 83.6758 10.8484 83.6662 10.9967L84.6641 11.0615ZM84.6992 10.835L85.6849 11.0033C85.6899 10.9741 85.6928 10.9497 85.6931 10.9469C85.6943 10.9369 85.6928 10.9501 85.691 10.9627C85.6877 10.9852 85.6736 11.0845 85.6219 11.2028C85.5634 11.3365 85.4556 11.4981 85.2712 11.6212C85.0933 11.7399 84.9162 11.7745 84.7956 11.7815L84.7373 10.7832L84.6791 9.7849C84.5397 9.79303 84.349 9.8321 84.161 9.95755C83.9666 10.0873 83.8522 10.2579 83.7893 10.4018C83.7332 10.5302 83.7167 10.6408 83.7118 10.6746C83.7092 10.6928 83.707 10.7116 83.7075 10.7071C83.7075 10.7071 83.7077 10.706 83.7079 10.7044C83.7081 10.7028 83.7084 10.7002 83.7088 10.6969C83.7097 10.6907 83.7112 10.68 83.7135 10.6666L84.6992 10.835ZM84.7373 10.7832L84.7947 11.7816C84.6742 11.7885 84.4999 11.7744 84.3152 11.6828C84.1248 11.5885 84.0003 11.4501 83.9254 11.3312C83.859 11.2257 83.8304 11.1331 83.824 11.1125C83.8205 11.1015 83.8169 11.0889 83.8199 11.0993C83.8209 11.1028 83.8276 11.1261 83.8371 11.154L84.7832 10.8301L85.7293 10.5062C85.7336 10.5188 85.7368 10.5289 85.7386 10.535C85.7404 10.5408 85.7416 10.5452 85.7416 10.5452C85.7431 10.5501 85.738 10.5321 85.7328 10.5155C85.7229 10.4839 85.6902 10.3805 85.6178 10.2655C85.537 10.137 85.4046 9.99058 85.2032 9.89078C85.0075 9.79381 84.819 9.77686 84.68 9.78485L84.7373 10.7832ZM84.7832 10.8301L83.8551 11.2024C83.8367 11.1564 83.8268 11.1176 83.8211 11.0894L84.8018 10.8936L85.7824 10.6977C85.7683 10.6271 85.7463 10.5449 85.7113 10.4578L84.7832 10.8301ZM84.8018 10.8936L83.813 11.0429C83.8429 11.2411 83.8549 11.2824 83.8612 11.3661L84.8584 11.291L85.8556 11.216C85.8419 11.034 85.8006 10.8108 85.7905 10.7442L84.8018 10.8936ZM84.8584 11.291L83.8612 11.3654C83.9038 11.9367 83.9442 12.5905 83.9903 13.1823L84.9873 13.1045L85.9843 13.0267C85.9362 12.4101 85.9032 11.8543 85.8556 11.2166L84.8584 11.291ZM84.9873 13.1045L83.9904 13.1826C84.0082 13.4102 84.0333 13.7748 84.1587 14.1473L85.1064 13.8281L86.0542 13.509C86.0196 13.4063 86.0044 13.2834 85.9843 13.0264L84.9873 13.1045ZM85.1064 13.8281L84.1583 14.1459C84.1484 14.1166 84.1323 14.055 84.1497 14.1207C84.1567 14.1469 84.1819 14.2436 84.2369 14.3526C84.2965 14.4705 84.4067 14.6353 84.6024 14.7648C84.8035 14.8977 85.017 14.9421 85.1966 14.9424L85.1982 13.9424L85.1999 12.9424C85.3416 12.9426 85.5266 12.9782 85.7057 13.0966C85.8794 13.2115 85.9741 13.356 86.0221 13.4509C86.0655 13.5368 86.0828 13.6077 86.083 13.6084C86.0936 13.6485 86.0718 13.5617 86.0546 13.5103L85.1064 13.8281ZM85.1982 13.9424L85.2017 14.9424C85.3707 14.9418 85.5778 14.9028 85.7776 14.7775C85.9762 14.6529 86.0929 14.4899 86.1585 14.3647C86.2183 14.2506 86.2451 14.1488 86.2528 14.1197C86.2718 14.0486 86.2544 14.114 86.2458 14.1396L85.2969 13.8242L84.3479 13.5088C84.3317 13.5576 84.3084 13.6494 84.3203 13.6047C84.321 13.602 84.3396 13.5269 84.3869 13.4365C84.4401 13.335 84.5401 13.1928 84.7149 13.0832C84.891 12.9728 85.0671 12.9428 85.1948 12.9424L85.1982 13.9424ZM85.2969 13.8242L86.2441 14.1449C86.3687 13.7768 86.381 13.4122 86.3919 13.2212L85.3936 13.1641L84.3952 13.1069C84.3808 13.3578 84.3716 13.4388 84.3497 13.5035L85.2969 13.8242ZM85.3936 13.1641L86.3919 13.2219C86.4294 12.5744 86.4319 11.9227 86.4413 11.3192L85.4414 11.3037L84.4415 11.2882C84.4317 11.9244 84.4296 12.5137 84.3952 13.1062L85.3936 13.1641ZM85.4414 11.3037L86.4413 11.3205C86.4428 11.2265 86.4505 11.1235 86.4634 11.0098L85.4697 10.8975L84.4761 10.7851C84.4584 10.9416 84.4445 11.1112 84.4415 11.2869L85.4414 11.3037ZM85.4697 10.8975L86.4601 11.0357C86.4691 10.9715 86.4704 10.9191 86.4707 10.8933C86.471 10.868 86.4704 10.8437 86.4704 10.8437C86.4699 10.8185 86.4734 10.8864 86.4619 10.9678C86.4504 11.0492 86.4085 11.2718 86.2177 11.478C86.0018 11.7114 85.7341 11.7789 85.5531 11.7855L85.5166 10.7861L85.4801 9.7868C85.2677 9.79456 84.9792 9.87158 84.7496 10.1198C84.5449 10.341 84.4963 10.5839 84.4816 10.6879C84.4732 10.7469 84.4713 10.7959 84.4707 10.8252C84.4701 10.8539 84.4707 10.8787 84.4708 10.8838C84.4716 10.9253 84.4672 10.8459 84.4793 10.7592L85.4697 10.8975ZM85.5166 10.7861L85.5513 11.7855C85.3648 11.792 85.1515 11.7414 84.963 11.6034C84.7925 11.4787 84.7089 11.3309 84.6727 11.2553C84.6535 11.2149 84.6414 11.1816 84.6346 11.1617C84.6279 11.1419 84.624 11.1275 84.6235 11.1255C84.615 11.0945 84.6347 11.1701 84.6515 11.2192L85.5977 10.8955L86.5438 10.5718C86.5534 10.6 86.5672 10.6511 86.5519 10.5953C86.546 10.5736 86.5232 10.4891 86.4775 10.3933C86.4307 10.2953 86.3333 10.1279 86.1441 9.98941C85.9367 9.83768 85.6996 9.77918 85.4819 9.78673L85.5166 10.7861ZM85.5977 10.8955L84.6527 11.2227C84.7289 11.4429 84.7568 11.6731 84.8077 12.0535L85.7988 11.9209L86.79 11.7883C86.749 11.482 86.6995 11.0213 86.5426 10.5683L85.5977 10.8955ZM85.7988 11.9209L84.8074 12.0515C84.8542 12.4072 84.8885 12.766 84.9123 13.1273L85.9102 13.0615L86.908 12.9957C86.8816 12.5957 86.8434 12.1934 86.7903 11.7903L85.7988 11.9209ZM85.9102 13.0615L84.9123 13.1273C84.9512 13.7178 84.9837 14.2201 84.9446 14.7117L85.9414 14.791L86.9383 14.8704C86.991 14.2083 86.945 13.5577 86.908 12.9958L85.9102 13.0615ZM85.9414 14.791L84.9445 14.7119C84.944 14.7184 84.9433 14.7212 84.9433 14.7212C84.9432 14.7213 84.9433 14.7212 84.9434 14.7208C84.9435 14.7206 84.9435 14.7205 84.9436 14.7203C84.9436 14.7203 84.9436 14.7202 84.9437 14.7202C84.9437 14.7202 84.9437 14.7201 84.9437 14.7201C84.9437 14.7201 84.9437 14.7202 84.9436 14.7202C84.9436 14.7203 84.9436 14.7203 84.9435 14.7205C84.9434 14.7207 84.9432 14.7211 84.9429 14.7216C84.9423 14.7226 84.9411 14.7245 84.9393 14.7271C84.9355 14.7323 84.9281 14.7418 84.9147 14.7551L85.6191 15.4648L86.3236 16.1746C86.6939 15.807 86.8996 15.3582 86.9383 14.8701L85.9414 14.791ZM85.6191 15.4648L84.9133 14.7565C84.8286 14.8408 84.726 14.926 84.5777 15.0473L85.2109 15.8213L85.8442 16.5953C85.9787 16.4852 86.159 16.3386 86.325 16.1732L85.6191 15.4648ZM85.2109 15.8213L84.5783 15.0468C84.1206 15.4208 83.7757 15.9547 83.7943 16.6516L84.7939 16.625L85.7936 16.5984C85.7937 16.6008 85.7935 16.6107 85.7902 16.625C85.7869 16.6394 85.7821 16.651 85.7784 16.658C85.7713 16.6714 85.7792 16.6484 85.8436 16.5957L85.2109 15.8213ZM84.7939 16.625L83.7943 16.6522C83.7986 16.8091 83.8029 16.9567 83.807 17.1106L84.8066 17.084L85.8063 17.0573C85.8022 16.9055 85.7976 16.7468 85.7936 16.5978L84.7939 16.625ZM84.8066 17.084V16.084H83.9443V17.084V18.084H84.8066V17.084ZM83.9443 17.084L84.9441 17.1035C84.9484 16.886 84.9497 16.6684 84.9482 16.4511L83.9482 16.458L82.9483 16.4649C82.9496 16.6648 82.9484 16.8648 82.9445 17.0645L83.9443 17.084ZM83.9482 16.458L84.9482 16.4454C84.9452 16.21 84.8881 15.9814 84.7839 15.7731L83.8896 16.2207L82.9954 16.6683C82.9675 16.6125 82.9493 16.5444 82.9483 16.4706L83.9482 16.458ZM83.8896 16.2207L84.7866 15.7785C84.6028 15.4058 84.2832 15.1649 84.172 15.0765L83.5498 15.8594L82.9276 16.6422C82.9595 16.6676 82.9829 16.6866 83.0026 16.7033C83.0219 16.7198 83.0327 16.73 83.0382 16.7354C83.0435 16.7408 83.04 16.7379 83.0318 16.7271C83.0234 16.7161 83.0084 16.6947 82.9927 16.6629L83.8896 16.2207ZM83.5498 15.8594L84.1714 15.076C83.9933 14.9347 83.8963 14.8311 83.8437 14.751L83.0078 15.2998L82.1719 15.8487C82.3928 16.1851 82.6769 16.4433 82.9282 16.6427L83.5498 15.8594ZM83.0078 15.2998L83.8437 14.7509C83.8385 14.743 83.8133 14.7166 83.8074 14.453L82.8076 14.4756L81.8079 14.4982C81.8146 14.7959 81.8316 15.3304 82.1719 15.8487L83.0078 15.2998ZM82.8076 14.4756L83.8074 14.4531C83.7837 13.3978 83.888 12.3344 84.0793 11.2568L83.0947 11.082L82.1101 10.9072C81.9014 12.0829 81.7805 13.2815 81.8079 14.498L82.8076 14.4756ZM83.0947 11.082L84.0795 11.2559C84.0826 11.2384 84.0856 11.2206 84.0874 11.21C84.0895 11.1975 84.0907 11.1904 84.0917 11.1846C84.0938 11.1734 84.0933 11.178 84.0901 11.1898C84.0865 11.2028 84.0799 11.2236 84.0689 11.2488C84.0576 11.2743 84.044 11.2992 84.0285 11.3221L83.2002 10.7617L82.3719 10.2014C82.1514 10.5274 82.1167 10.8702 82.11 10.9081L83.0947 11.082Z" fill="white" mask="url(#path-16-outside-4_101_36)"/>
<mask id="path-18-outside-5_101_36" maskUnits="userSpaceOnUse" x="81.8828" y="17.0859" width="5" height="9" fill="black">
<rect fill="white" x="81.8828" y="17.0859" width="5" height="9"/>
<path d="M82.8828 17.6123C82.8828 17.3216 83.1185 17.0859 83.4091 17.0859H85.3565C85.6472 17.0859 85.8828 17.3216 85.8828 17.6123V24.5596C85.8828 24.8503 85.6472 25.0859 85.3565 25.0859H83.4091C83.1185 25.0859 82.8828 24.8503 82.8828 24.5596V17.6123Z"/>
</mask>
<path d="M82.8828 17.6123C82.8828 17.3216 83.1185 17.0859 83.4091 17.0859H85.3565C85.6472 17.0859 85.8828 17.3216 85.8828 17.6123V24.5596C85.8828 24.8503 85.6472 25.0859 85.3565 25.0859H83.4091C83.1185 25.0859 82.8828 24.8503 82.8828 24.5596V17.6123Z" fill="#A3C73D"/>
<path d="M82.8828 17.0859H85.8828H82.8828ZM86.8828 24.5596C86.8828 25.4026 86.1995 26.0859 85.3565 26.0859H83.4091C82.5662 26.0859 81.8828 25.4026 81.8828 24.5596L83.8828 24.0859H84.8828L86.8828 24.5596ZM83.4091 26.0859C82.5662 26.0859 81.8828 25.4026 81.8828 24.5596V18.6123C81.8828 17.7693 82.5662 17.0859 83.4091 17.0859H83.8828C83.8828 17.0859 83.8828 17.3216 83.8828 17.6123V24.0859L83.4091 26.0859ZM85.3565 17.0859C86.1995 17.0859 86.8828 17.7693 86.8828 18.6123V24.5596C86.8828 25.4026 86.1995 26.0859 85.3565 26.0859L84.8828 24.0859V17.6123C84.8828 17.3216 84.8828 17.0859 84.8828 17.0859H85.3565Z" fill="white" mask="url(#path-18-outside-5_101_36)"/>
</g>
<defs>
<filter id="filter0_d_101_36" x="0.804688" y="1" width="92.8867" height="34" filterUnits="userSpaceOnUse" color-interpolation-filters="sRGB">
<feFlood flood-opacity="0" result="BackgroundImageFix"/>
<feColorMatrix in="SourceAlpha" type="matrix" values="0 0 0 0 0 0 0 0 0 0 0 0 0 0 0 0 0 0 127 0" result="hardAlpha"/>
<feOffset/>
<feComposite in2="hardAlpha" operator="out"/>
<feColorMatrix type="matrix" values="0 0 0 0 0.976923 0 0 0 0 0.961893 0 0 0 0 0.961893 0 0 0 1 0"/>
<feBlend mode="normal" in2="BackgroundImageFix" result="effect1_dropShadow_101_36"/>
<feBlend mode="normal" in="SourceGraphic" in2="effect1_dropShadow_101_36" result="shape"/>
</filter>
</defs>
</svg>
